<?xml version="1.0" encoding="utf-8"?>
<!-- Generator: Adobe Illustrator 26.0.3, SVG Export Plug-In . SVG Version: 6.00 Build 0)  -->
<svg version="1.1" id="Layer_1" xmlns="http://www.w3.org/2000/svg" x="0px" y="0px"
     viewBox="0 0 120 120" style="enable-background:new 0 0 120 120;" xml:space="preserve">
<style type="text/css">
	.st0{fill:#006C98;}
	.st1{fill-rule:evenodd;clip-rule:evenodd;fill:#006C98;}
</style>
<g>
	<path class="st0" d="M99.5,71.6H38.3v-2.4h61.1c3.9,0,7.1-3.2,7.1-7.1V12.5c0-3.9-3.2-7.1-7.1-7.1H92V3.1h7.5
		c5.2,0,9.5,4.2,9.5,9.4v49.7C108.9,67.4,104.7,71.6,99.5,71.6z"/>
</g>
<g>
	<path class="st0" d="M13.1,61h-2.4V12.5c0-5.2,4.2-9.4,9.5-9.4H73v2.4H20.3c-3.9,0-7.1,3.2-7.1,7.1V61z"/>
</g>
<g>
	<path class="st0" d="M30,42.1h-7.4c-2,0-3.6-1.6-3.6-3.6v-2.3c0-2,1.6-3.6,3.6-3.6H30c2,0,3.6,1.6,3.6,3.6v2.3
		C33.6,40.5,32,42.1,30,42.1z M22.6,34.9c-0.8,0-1.4,0.6-1.4,1.4v2.3c0,0.8,0.6,1.4,1.4,1.4H30c0.8,0,1.4-0.6,1.4-1.4v-2.3
		c0-0.8-0.6-1.4-1.4-1.4H22.6z"/>
</g>
<g>
	<path class="st1" d="M75.9,3c-1.5,5.8-5.4,13.2-11.3,20.8c-0.4,0.6-0.5,1.3-0.2,2c0,0,0,0.1,0,0.1c0.3,0.4,0.7,0.7,1.1,0.8
		c0.2,0.1,0.5,0.1,0.7,0.1l0.3,0l8.8-0.7l0.9-0.1l1.4-0.1l-1,7.9c0,0.4,0,0.7,0.2,1c0.2,0.4,0.5,0.7,1,0.9c0,0,0,0,0,0
		c0.1,0,0.1,0,0.2,0.1c0.7,0.2,1.5-0.1,2-0.7C84.3,29.3,88.4,22,91,15.9c1.2-2.9,2.2-6,2.9-9.1c0.3-1.1,0.5-2.4,0.8-3.8H75.9z
		 M70.9,32.8c-0.4-0.4-0.9-0.6-1.5-0.6l-0.4,0l-0.4,0L56,33.4l-13.5,1.1c-0.7,0.1-1.3,0.5-1.6,1.2c-0.2,0.7-0.1,1.4,0.4,1.9l5.4,5.6
		c-7.6,6.8-15.3,12-22.2,15.4c-5.5,2.7-10.4,4.1-14.1,4.1v0.4c0,1.9,0.6,3.7,1.7,5.1c0,0,0,0,0,0c1.6,2.1,4.1,3.5,6.9,3.5h21
		c6.2-3.4,12.8-8.1,19.4-13.8c0,0,0,0,0.1,0c0.2-0.2,0.5-0.4,0.7-0.6l4.4,4.6l0.4,0.5c0.2,0.2,0.4,0.3,0.7,0.4
		c0.4,0.2,0.8,0.2,1.2,0c0.7-0.2,1.2-0.8,1.3-1.5l1.6-13.4l0.1-0.7c0-0.2,0-0.4,0-0.5l1.5-12.3C71.5,33.8,71.3,33.2,70.9,32.8"/>
</g>
<g>
	<path class="st0" d="M89.7,42.2c-0.2,0-0.4-0.1-0.6-0.2c-0.3-0.3-0.4-0.9,0-1.2c0.9-0.9,1.4-2.2,1.4-3.4c0-1.3-0.5-2.5-1.4-3.4
		c-0.2-0.2-0.2-0.4-0.2-0.6c0-0.2,0.1-0.5,0.3-0.6c0.2-0.1,0.4-0.2,0.6-0.2c0.2,0,0.5,0.1,0.6,0.3c1.2,1.3,1.8,2.9,1.8,4.6
		c0,1.7-0.6,3.4-1.8,4.6C90.2,42.1,90,42.2,89.7,42.2L89.7,42.2z"/>
</g>
<g>
	<path class="st0" d="M91.7,37.4c0-1.6-0.6-3.1-1.7-4.3c-0.1-0.1-0.2-0.1-0.3-0.1c-0.1,0-0.2,0-0.3,0.1c-0.1,0.1-0.1,0.2-0.1,0.3
		c0,0.1,0,0.2,0.1,0.3c1,1,1.5,2.3,1.5,3.8c0,1.4-0.5,2.7-1.5,3.7c-0.2,0.2-0.1,0.4,0,0.6c0.1,0.1,0.2,0.1,0.3,0.1
		c0.1,0,0.2,0,0.3-0.1C91.1,40.5,91.7,39,91.7,37.4"/>
</g>
<g>
	<path class="st0" d="M92.7,45c-0.2,0-0.4-0.1-0.6-0.2c-0.3-0.3-0.4-0.9,0-1.2c1.6-1.7,2.4-3.8,2.4-6.1c0-2.3-0.9-4.5-2.5-6.2
		c-0.2-0.2-0.2-0.4-0.2-0.6c0-0.2,0.1-0.5,0.3-0.6c0.2-0.2,0.4-0.2,0.6-0.2c0.2,0,0.5,0.1,0.6,0.3c1.9,2,2.9,4.6,2.9,7.3
		c0,2.7-1,5.3-2.9,7.3C93.2,44.9,92.9,45,92.7,45L92.7,45z"/>
</g>
<g>
	<path class="st0" d="M95.8,37.4c0-2.6-1-5.1-2.8-7c-0.1-0.1-0.2-0.1-0.3-0.1c-0.1,0-0.2,0-0.3,0.1c-0.1,0.1-0.1,0.2-0.1,0.3
		c0,0.1,0,0.2,0.1,0.3C94,32.7,95,35,95,37.4c0,2.4-0.9,4.7-2.6,6.4c-0.2,0.2-0.1,0.4,0,0.6c0.1,0.1,0.2,0.1,0.3,0.1
		c0.1,0,0.2,0,0.3-0.1C94.8,42.5,95.8,40,95.8,37.4"/>
</g>
<g>
	<path class="st0" d="M95.8,46.8c-0.2,0-0.4-0.1-0.6-0.2c-0.3-0.3-0.4-0.9,0-1.2c2.1-2.2,3.2-5,3.2-8c0-3-1.1-5.9-3.2-8
		c-0.2-0.2-0.2-0.4-0.2-0.6c0-0.2,0.1-0.5,0.3-0.6c0.2-0.2,0.4-0.2,0.6-0.2c0.3,0,0.5,0.1,0.6,0.3c2.4,2.5,3.7,5.8,3.7,9.2
		c0,3.4-1.3,6.7-3.6,9.2C96.3,46.7,96.1,46.8,95.8,46.8L95.8,46.8z"/>
</g>
<g>
	<path class="st0" d="M96.1,46.3c2.3-2.4,3.5-5.6,3.5-8.9c0-3.3-1.3-6.5-3.6-8.9c-0.1-0.1-0.2-0.1-0.3-0.1c-0.1,0-0.2,0-0.3,0.1
		c-0.1,0.1-0.1,0.2-0.1,0.3c0,0.1,0,0.2,0.1,0.3c2.2,2.3,3.3,5.2,3.3,8.3c0,3.1-1.2,6.1-3.3,8.3c-0.2,0.2-0.1,0.4,0,0.6
		c0.1,0.1,0.2,0.1,0.3,0.1C95.9,46.4,96,46.3,96.1,46.3"/>
</g>
<g>
	<path class="st0" d="M31.8,109.1c0.4-1.7,1.8-2.6,4.2-2.6h2.8c0.2,0,0.3,0.1,0.4,0.2c0.1,0.1,0.2,0.3,0.2,0.4v8.3
		c0,0.2-0.1,0.3-0.2,0.4c-0.1,0.1-0.3,0.2-0.4,0.2h-1.2c-0.2,0-0.3-0.1-0.4-0.2c-0.1-0.1-0.2-0.3-0.2-0.4v-1.7h-3.9l-0.4,1.7
		c0,0.2-0.1,0.3-0.3,0.4c-0.2,0.1-0.3,0.2-0.5,0.2h-1.3c-0.1,0-0.3,0-0.3-0.1c-0.1-0.1-0.1-0.2-0.1-0.3c0-0.1,0-0.2,0-0.2
		L31.8,109.1z M33.5,111.8h3.4v-3.4h-1.1c-0.4,0-0.8,0.1-1.1,0.4c-0.3,0.2-0.5,0.6-0.6,1L33.5,111.8z"/>
</g>
<g>
	<path class="st0" d="M40.8,111.3c0-1.6,0.4-2.8,1.2-3.6c0.8-0.8,2-1.2,3.6-1.2H47c0.7,0,1.3,0.1,1.8,0.4c0.6,0.2,1,0.6,1.3,1
		c0.3,0.4,0.5,0.9,0.5,1.5c0,0.2-0.1,0.4-0.2,0.5c-0.1,0.1-0.3,0.2-0.5,0.2h-0.7c-0.4,0-0.7-0.2-0.9-0.7c-0.3-0.7-0.8-1-1.6-1h-1.1
		c-0.6,0-1.1,0.1-1.4,0.3c-0.3,0.2-0.6,0.5-0.7,0.9c-0.1,0.4-0.2,1-0.2,1.7c0,0.8,0.1,1.3,0.2,1.8c0.1,0.4,0.4,0.7,0.7,0.9
		c0.3,0.2,0.8,0.3,1.4,0.3h1.3c0.7,0,1.2-0.3,1.5-1c0.2-0.5,0.5-0.7,0.9-0.7h0.8c0.2,0,0.3,0.1,0.5,0.2c0.1,0.1,0.2,0.3,0.2,0.5
		c0,0.6-0.2,1.1-0.5,1.5c-0.3,0.4-0.8,0.8-1.3,1c-0.6,0.2-1.2,0.3-1.8,0.3h-1.5c-1.6,0-2.8-0.4-3.6-1.1
		C41.2,114.1,40.8,112.9,40.8,111.3"/>
</g>
<g>
	<path class="st0" d="M52.3,111.3c0-1.6,0.4-2.8,1.2-3.6c0.8-0.8,2-1.2,3.6-1.2h1.4c0.7,0,1.3,0.1,1.8,0.4c0.6,0.2,1,0.6,1.3,1
		c0.3,0.4,0.5,0.9,0.5,1.5c0,0.2-0.1,0.4-0.2,0.5c-0.1,0.1-0.3,0.2-0.5,0.2h-0.7c-0.4,0-0.7-0.2-0.9-0.7c-0.3-0.7-0.8-1-1.6-1h-1.1
		c-0.6,0-1.1,0.1-1.4,0.3c-0.3,0.2-0.6,0.5-0.7,0.9c-0.1,0.4-0.2,1-0.2,1.7c0,0.8,0.1,1.3,0.2,1.8c0.1,0.4,0.4,0.7,0.7,0.9
		c0.3,0.2,0.8,0.3,1.4,0.3h1.3c0.7,0,1.2-0.3,1.6-1c0.2-0.5,0.5-0.7,0.9-0.7h0.8c0.2,0,0.3,0.1,0.5,0.2c0.1,0.1,0.2,0.3,0.2,0.5
		c0,0.6-0.2,1.1-0.5,1.5c-0.3,0.4-0.8,0.8-1.3,1c-0.6,0.2-1.2,0.3-1.8,0.3H57c-1.6,0-2.8-0.4-3.6-1.1
		C52.7,114.1,52.3,112.9,52.3,111.3"/>
</g>
<g>
	<path class="st0" d="M63.5,107.1c0-0.2,0.1-0.3,0.2-0.4c0.1-0.1,0.3-0.2,0.4-0.2h6c0.2,0,0.3,0.1,0.4,0.2c0.1,0.1,0.2,0.3,0.2,0.4
		v0.6c0,0.2-0.1,0.3-0.2,0.4c-0.1,0.1-0.3,0.2-0.4,0.2h-4.2v1.9h3.4c0.2,0,0.3,0.1,0.4,0.2c0.1,0.1,0.2,0.3,0.2,0.4v0.6
		c0,0.2-0.1,0.3-0.2,0.4c-0.1,0.1-0.3,0.2-0.4,0.2h-3.4v1.9h4.2c0.2,0,0.3,0.1,0.4,0.2c0.1,0.1,0.2,0.3,0.2,0.4v0.6
		c0,0.2-0.1,0.3-0.2,0.4c-0.1,0.1-0.3,0.2-0.4,0.2h-6c-0.2,0-0.3-0.1-0.4-0.2c-0.1-0.1-0.2-0.3-0.2-0.4V107.1z"/>
</g>
<g>
	<path class="st0" d="M72.1,107.1c0-0.2,0.1-0.3,0.2-0.4c0.1-0.1,0.3-0.2,0.4-0.2h4.2c2.6,0,3.8,1.2,3.8,3.7c0,2.5-1.3,3.7-3.8,3.7
		h-2.4v1.5c0,0.2-0.1,0.3-0.2,0.4c-0.1,0.1-0.3,0.2-0.4,0.2h-1.2c-0.2,0-0.3-0.1-0.4-0.2c-0.1-0.1-0.2-0.3-0.2-0.4V107.1z M74.5,112
		h1.6c0.8,0,1.3-0.1,1.7-0.4c0.3-0.3,0.5-0.7,0.5-1.4c0-0.7-0.2-1.1-0.5-1.4c-0.3-0.3-0.9-0.4-1.7-0.4h-1.6V112z"/>
</g>
<g>
	<path class="st0" d="M81.7,107.1c0-0.2,0.1-0.3,0.2-0.5c0.1-0.1,0.3-0.2,0.4-0.2h7.3c0.2,0,0.3,0.1,0.4,0.2
		c0.1,0.1,0.2,0.3,0.2,0.5v0.6c0,0.2-0.1,0.3-0.2,0.4c-0.1,0.1-0.3,0.2-0.4,0.2h-2.4v7c0,0.2-0.1,0.3-0.2,0.4
		c-0.1,0.1-0.3,0.2-0.4,0.2h-1.2c-0.2,0-0.3-0.1-0.4-0.2c-0.1-0.1-0.2-0.3-0.2-0.4v-7h-2.4c-0.2,0-0.3-0.1-0.4-0.2
		c-0.1-0.1-0.2-0.3-0.2-0.4V107.1z"/>
</g>
<g>
	<path class="st0" d="M24.7,81.3L22.6,81c-2,0-3.4,0.3-4,0.8c-0.6,0.5-0.9,1.7-0.9,3.4v0.2h5.6c0.3,0,0.5,0.1,0.7,0.3
		c0.2,0.2,0.3,0.4,0.3,0.7v1.8c0,0.3-0.1,0.5-0.3,0.7c-0.2,0.2-0.4,0.3-0.7,0.3h-5.6v9.6c0,0.3-0.1,0.5-0.3,0.7
		c-0.2,0.2-0.4,0.3-0.7,0.3h-3.5c-0.3,0-0.5-0.1-0.7-0.3c-0.2-0.2-0.3-0.4-0.3-0.7V85.2c0-2.9,0.7-4.9,2-6.1
		c1.3-1.2,3.6-1.8,6.9-1.8c1.7,0,2.9,0.1,3.5,0.2c0.7,0.1,1.1,0.3,1.3,0.5c0.2,0.2,0.3,0.4,0.3,0.6v1.7c0,0.3-0.1,0.5-0.3,0.7
		c-0.2,0.2-0.4,0.3-0.7,0.3H24.7z"/>
</g>
<g>
	<path class="st0" d="M27.5,98.6c-1.4-0.9-2-2.3-2-4c0-1.7,0.7-3.1,2-4c1.4-0.9,3.1-1.4,5.3-1.4h5.1c0-1.2-0.2-2-0.7-2.5
		c-0.5-0.5-1.4-0.7-2.6-0.7c-1.3,0-2.1,0.3-2.6,0.9c-0.5,0.6-1.1,0.9-1.9,0.9h-2.3c-0.3,0-0.5-0.1-0.7-0.3c-0.2-0.2-0.3-0.4-0.3-0.7
		c0-2.9,2.8-4.4,8.4-4.4c2.4,0,4.4,0.5,5.9,1.7c1.5,1.1,2.2,2.8,2.2,5.1v9.5c0,0.3-0.1,0.5-0.3,0.7c-0.2,0.2-0.4,0.3-0.7,0.3h-3
		c-0.3,0-0.5-0.1-0.7-0.3c-0.2-0.2-0.3-0.4-0.3-0.7v-0.5c-1.6,1.2-3.5,1.7-5.6,1.7C30.6,100.1,28.9,99.6,27.5,98.6 M31.5,93.3
		c-0.4,0.3-0.6,0.8-0.6,1.4c0,0.6,0.2,1,0.7,1.4c0.4,0.4,1,0.5,1.8,0.5c1.6,0,3.1-0.5,4.6-1.4v-2.4h-4.7
		C32.4,92.8,31.9,92.9,31.5,93.3"/>
</g>
<g>
	<path class="st0" d="M44.2,84.2c-0.1-0.3-0.1-0.5-0.1-0.7c0-0.5,0.2-0.7,0.8-0.7h2.9c0.5,0,0.9,0.1,1.3,0.4c0.4,0.2,0.6,0.6,0.8,1
		l2.5,8.3l2.5-8.3c0.3-0.9,0.9-1.4,1.8-1.4h2.7c0.9,0,1.5,0.5,1.8,1.4l2.5,8.3l2.5-8.3c0.1-0.4,0.4-0.7,0.8-1
		c0.4-0.2,0.8-0.4,1.3-0.4H71c0.5,0,0.8,0.2,0.8,0.7c0,0.2,0,0.4-0.1,0.7L67,98.4c-0.1,0.4-0.4,0.7-0.8,1c-0.4,0.3-0.8,0.4-1.2,0.4
		h-2.2c-0.4,0-0.8-0.1-1.2-0.4c-0.4-0.2-0.6-0.6-0.7-1l-3-9.2l-3,9.2c-0.1,0.4-0.4,0.7-0.7,1c-0.4,0.3-0.8,0.4-1.2,0.4h-2.2
		c-0.4,0-0.8-0.1-1.2-0.4c-0.4-0.2-0.6-0.6-0.8-1L44.2,84.2z"/>
</g>
<g>
	<path class="st0" d="M85.3,86.8l-2.4-0.1c-1.4,0-2.7,0.8-4,2.3v9.9c0,0.3-0.1,0.5-0.3,0.7c-0.2,0.2-0.4,0.3-0.7,0.3h-3.5
		c-0.3,0-0.5-0.1-0.7-0.3c-0.2-0.2-0.3-0.4-0.3-0.7v-15c0-0.3,0.1-0.5,0.3-0.7c0.2-0.2,0.4-0.3,0.7-0.3H78c0.3,0,0.5,0.1,0.7,0.3
		c0.2,0.2,0.3,0.4,0.3,0.7v1c1-0.8,2.1-1.3,3-1.7c1-0.4,2.2-0.5,3.8-0.5c0.3,0,0.5,0.1,0.7,0.3c0.2,0.2,0.3,0.4,0.3,0.7v2.4
		c0,0.3-0.1,0.5-0.3,0.7c-0.2,0.2-0.4,0.3-0.7,0.3L85.3,86.8L85.3,86.8z"/>
</g>
<g>
	<path class="st0" d="M92.9,101.4l2,0.3c1.4,0,2.5-1.1,3-3.2c-1.7,0-3.2-0.5-4.4-1.6c-1.2-1.1-2.2-2.9-3-5.6l-2.3-7.4
		c0-0.1,0-0.2,0-0.3c0-0.1,0.1-0.3,0.2-0.4c0.1-0.2,0.3-0.2,0.6-0.3h3.2c0.3,0,0.6,0.1,0.9,0.3c0.3,0.2,0.5,0.5,0.5,0.7l2,6.5
		c0.5,1.6,1,2.7,1.5,3.3c0.5,0.6,1.1,0.9,1.9,0.9l3.1-10.8c0.1-0.3,0.2-0.5,0.5-0.7c0.2-0.2,0.5-0.3,0.8-0.3h3.3
		c0.3,0,0.5,0.1,0.6,0.3c0.1,0.2,0.2,0.3,0.2,0.4c0,0.1,0,0.2,0,0.3l-4,14.4c-0.7,2.6-1.6,4.4-2.7,5.5c-1.1,1.1-2.4,1.6-4.1,1.6
		s-2.9-0.1-3.6-0.2c-0.7-0.1-1.1-0.3-1.3-0.5c-0.2-0.2-0.3-0.4-0.3-0.6v-1.7c0-0.3,0.1-0.5,0.3-0.7c0.2-0.2,0.4-0.3,0.7-0.3H92.9z"
		/>
</g>
</svg>
